<?xml version="1.0" encoding="UTF-8" standalone="no"?>
<!DOCTYPE svg PUBLIC "-//W3C//DTD SVG 1.1//EN"
 "http://www.w3.org/Graphics/SVG/1.1/DTD/svg11.dtd">
<!-- Generated by graphviz version 2.43.0 (0)
 -->
<!-- Title: snakemake_dag Pages: 1 -->
<svg width="393pt" height="332pt"
 viewBox="0.00 0.00 392.50 332.00" xmlns="http://www.w3.org/2000/svg" xmlns:xlink="http://www.w3.org/1999/xlink">
<g id="graph0" class="graph" transform="scale(1 1) rotate(0) translate(4 328)">
<title>snakemake_dag</title>
<polygon fill="white" stroke="transparent" points="-4,4 -4,-328 388.5,-328 388.5,4 -4,4"/>
<!-- 0 -->
<g id="node1" class="node">
<title>0</title>
<path fill="none" stroke="#d85656" stroke-width="2" d="M152.5,-36C152.5,-36 122.5,-36 122.5,-36 116.5,-36 110.5,-30 110.5,-24 110.5,-24 110.5,-12 110.5,-12 110.5,-6 116.5,0 122.5,0 122.5,0 152.5,0 152.5,0 158.5,0 164.5,-6 164.5,-12 164.5,-12 164.5,-24 164.5,-24 164.5,-30 158.5,-36 152.5,-36"/>
<text text-anchor="middle" x="137.5" y="-15.5" font-family="sans" font-size="10.00">all</text>
</g>
<!-- 1 -->
<g id="node2" class="node">
<title>1</title>
<path fill="none" stroke="#56a9d8" stroke-width="2" d="M224.5,-108C224.5,-108 50.5,-108 50.5,-108 44.5,-108 38.5,-102 38.5,-96 38.5,-96 38.5,-84 38.5,-84 38.5,-78 44.5,-72 50.5,-72 50.5,-72 224.5,-72 224.5,-72 230.5,-72 236.5,-78 236.5,-84 236.5,-84 236.5,-96 236.5,-96 236.5,-102 230.5,-108 224.5,-108"/>
<text text-anchor="middle" x="137.5" y="-87.5" font-family="sans" font-size="10.00">build_treatmentResponseExperiment</text>
</g>
<!-- 1&#45;&gt;0 -->
<g id="edge1" class="edge">
<title>1&#45;&gt;0</title>
<path fill="none" stroke="grey" stroke-width="2" d="M137.5,-71.7C137.5,-63.98 137.5,-54.71 137.5,-46.11"/>
<polygon fill="grey" stroke="grey" stroke-width="2" points="141,-46.1 137.5,-36.1 134,-46.1 141,-46.1"/>
</g>
<!-- 2 -->
<g id="node3" class="node">
<title>2</title>
<path fill="none" stroke="#56d8a9" stroke-width="2" d="M153,-324C153,-324 12,-324 12,-324 6,-324 0,-318 0,-312 0,-312 0,-300 0,-300 0,-294 6,-288 12,-288 12,-288 153,-288 153,-288 159,-288 165,-294 165,-300 165,-300 165,-312 165,-312 165,-318 159,-324 153,-324"/>
<text text-anchor="middle" x="82.5" y="-309" font-family="sans" font-size="10.00">download_treatmentResponse</text>
<text text-anchor="middle" x="82.5" y="-298" font-family="sans" font-size="10.00">release: 2.0</text>
</g>
<!-- 2&#45;&gt;1 -->
<g id="edge2" class="edge">
<title>2&#45;&gt;1</title>
<path fill="none" stroke="grey" stroke-width="2" d="M71.34,-287.82C52.87,-257.01 20.53,-191.18 47.5,-144 54.96,-130.95 67.02,-120.8 79.92,-113.03"/>
<polygon fill="grey" stroke="grey" stroke-width="2" points="81.89,-115.94 88.94,-108.03 78.5,-109.82 81.89,-115.94"/>
</g>
<!-- 4 -->
<g id="node5" class="node">
<title>4</title>
<path fill="none" stroke="#afd856" stroke-width="2" d="M186.5,-252C186.5,-252 88.5,-252 88.5,-252 82.5,-252 76.5,-246 76.5,-240 76.5,-240 76.5,-228 76.5,-228 76.5,-222 82.5,-216 88.5,-216 88.5,-216 186.5,-216 186.5,-216 192.5,-216 198.5,-222 198.5,-228 198.5,-228 198.5,-240 198.5,-240 198.5,-246 192.5,-252 186.5,-252"/>
<text text-anchor="middle" x="137.5" y="-231.5" font-family="sans" font-size="10.00">preprocess_Metadata</text>
</g>
<!-- 2&#45;&gt;4 -->
<g id="edge6" class="edge">
<title>2&#45;&gt;4</title>
<path fill="none" stroke="grey" stroke-width="2" d="M96.1,-287.7C102.62,-279.39 110.57,-269.28 117.75,-260.14"/>
<polygon fill="grey" stroke="grey" stroke-width="2" points="120.63,-262.13 124.06,-252.1 115.13,-257.81 120.63,-262.13"/>
</g>
<!-- 3 -->
<g id="node4" class="node">
<title>3</title>
<path fill="none" stroke="#59d856" stroke-width="2" d="M206,-180C206,-180 69,-180 69,-180 63,-180 57,-174 57,-168 57,-168 57,-156 57,-156 57,-150 63,-144 69,-144 69,-144 206,-144 206,-144 212,-144 218,-150 218,-156 218,-156 218,-168 218,-168 218,-174 212,-180 206,-180"/>
<text text-anchor="middle" x="137.5" y="-159.5" font-family="sans" font-size="10.00">annotate_treatmentMetadata</text>
</g>
<!-- 3&#45;&gt;1 -->
<g id="edge3" class="edge">
<title>3&#45;&gt;1</title>
<path fill="none" stroke="grey" stroke-width="2" d="M137.5,-143.7C137.5,-135.98 137.5,-126.71 137.5,-118.11"/>
<polygon fill="grey" stroke="grey" stroke-width="2" points="141,-118.1 137.5,-108.1 134,-118.1 141,-118.1"/>
</g>
<!-- 4&#45;&gt;3 -->
<g id="edge5" class="edge">
<title>4&#45;&gt;3</title>
<path fill="none" stroke="grey" stroke-width="2" d="M137.5,-215.7C137.5,-207.98 137.5,-198.71 137.5,-190.11"/>
<polygon fill="grey" stroke="grey" stroke-width="2" points="141,-190.1 137.5,-180.1 134,-190.1 141,-190.1"/>
</g>
<!-- 5 -->
<g id="node6" class="node">
<title>5</title>
<path fill="none" stroke="#d8ac56" stroke-width="2" d="M372.5,-180C372.5,-180 248.5,-180 248.5,-180 242.5,-180 236.5,-174 236.5,-168 236.5,-168 236.5,-156 236.5,-156 236.5,-150 242.5,-144 248.5,-144 248.5,-144 372.5,-144 372.5,-144 378.5,-144 384.5,-150 384.5,-156 384.5,-156 384.5,-168 384.5,-168 384.5,-174 378.5,-180 372.5,-180"/>
<text text-anchor="middle" x="310.5" y="-159.5" font-family="sans" font-size="10.00">annotate_sampleMetadata</text>
</g>
<!-- 4&#45;&gt;5 -->
<g id="edge7" class="edge">
<title>4&#45;&gt;5</title>
<path fill="none" stroke="grey" stroke-width="2" d="M179.82,-215.88C203.68,-206.22 233.67,-194.09 258.9,-183.88"/>
<polygon fill="grey" stroke="grey" stroke-width="2" points="260.36,-187.06 268.32,-180.07 257.73,-180.57 260.36,-187.06"/>
</g>
<!-- 5&#45;&gt;1 -->
<g id="edge4" class="edge">
<title>5&#45;&gt;1</title>
<path fill="none" stroke="grey" stroke-width="2" d="M268.18,-143.88C244.32,-134.22 214.33,-122.09 189.1,-111.88"/>
<polygon fill="grey" stroke="grey" stroke-width="2" points="190.27,-108.57 179.68,-108.07 187.64,-115.06 190.27,-108.57"/>
</g>
</g>
</svg>
