<?xml version="1.0" encoding="UTF-8" standalone="no"?>
<!DOCTYPE svg PUBLIC "-//W3C//DTD SVG 1.1//EN"
 "http://www.w3.org/Graphics/SVG/1.1/DTD/svg11.dtd">
<!-- Generated by graphviz version 2.43.0 (0)
 -->
<!-- Title: snakemake_dag Pages: 1 -->
<svg width="775pt" height="772pt"
 viewBox="0.00 0.00 774.50 772.00" xmlns="http://www.w3.org/2000/svg" xmlns:xlink="http://www.w3.org/1999/xlink">
<g id="graph0" class="graph" transform="scale(1 1) rotate(0) translate(4 768)">
<title>snakemake_dag</title>
<polygon fill="white" stroke="transparent" points="-4,4 -4,-768 770.5,-768 770.5,4 -4,4"/>
<!-- 0 -->
<g id="node1" class="node">
<title>0</title>
<text text-anchor="start" x="246" y="-71.6" font-family="sans" font-weight="bold" font-size="18.00">all</text>
<text text-anchor="start" x="57" y="-47.8" font-family="sans" font-size="10.00"> </text>
<text text-anchor="start" x="61" y="-47.8" font-family="sans" font-weight="bold" font-size="14.00">↪ input</text>
<text text-anchor="start" x="119" y="-47.8" font-family="sans" font-size="10.00"> </text>
<text text-anchor="start" x="57" y="-28" font-family="monospace" font-size="10.00">procdata/treatmentResponse/CTRPv2.0_treatmentResponseExperiment.RDS</text>
<text text-anchor="start" x="453" y="-10" font-family="sans" font-size="10.00"> &#160;</text>
<polygon fill="#57add9" stroke="#57add9" points="51,-62 51,-62 467,-62 467,-62 51,-62"/>
<polygon fill="#57add9" stroke="#57add9" points="51,-22 51,-22 467,-22 467,-22 51,-22"/>
<polygon fill="none" stroke="#57add9" stroke-width="2" points="50.5,-1 50.5,-91 465.5,-91 465.5,-1 50.5,-1"/>
</g>
<!-- 1 -->
<g id="node2" class="node">
<title>1</title>
<text text-anchor="start" x="72.5" y="-275.6" font-family="sans" font-weight="bold" font-size="18.00">build_treatmentResponseExperiment</text>
<text text-anchor="start" x="39" y="-251.8" font-family="sans" font-size="10.00"> </text>
<text text-anchor="start" x="43" y="-251.8" font-family="sans" font-weight="bold" font-size="14.00">↪ input</text>
<text text-anchor="start" x="101" y="-251.8" font-family="sans" font-size="10.00"> </text>
<text text-anchor="start" x="39" y="-232" font-family="monospace" font-size="10.00">procdata/metadata/CTRPv{release}_sampleMetadata.tsv</text>
<text text-anchor="start" x="39" y="-214" font-family="monospace" font-size="10.00">procdata/metadata/CTRPv{release}_treatmentMetadata.tsv</text>
<text text-anchor="start" x="39" y="-196" font-family="monospace" font-size="10.00">rawdata/treatmentResponse/CTRPv{release}.zip</text>
<text text-anchor="start" x="400" y="-175.8" font-family="sans" font-size="10.00"> </text>
<text text-anchor="start" x="404" y="-175.8" font-family="sans" font-weight="bold" font-size="14.00">output →</text>
<text text-anchor="start" x="474" y="-175.8" font-family="sans" font-size="10.00"> </text>
<text text-anchor="start" x="39" y="-156" font-family="monospace" font-size="10.00">procdata/treatmentResponse/CTRPv{release}_sensitivityInfo.RDS</text>
<text text-anchor="start" x="39" y="-138" font-family="monospace" font-size="10.00">procdata/treatmentResponse/CTRPv{release}_treatmentResponseExperiment.RDS</text>
<polygon fill="#d9ad57" stroke="#d9ad57" points="33,-266 33,-266 485,-266 485,-266 33,-266"/>
<polygon fill="#d9ad57" stroke="#d9ad57" points="33,-190 33,-190 485,-190 485,-190 33,-190"/>
<polygon fill="none" stroke="#d9ad57" stroke-width="2" points="32.5,-129 32.5,-295 483.5,-295 483.5,-129 32.5,-129"/>
</g>
<!-- 1&#45;&gt;0 -->
<g id="edge1" class="edge">
<title>1&#45;&gt;0</title>
<path fill="none" stroke="grey" stroke-width="2" d="M258,-127.56C258,-118.99 258,-110.44 258,-102.29"/>
<polygon fill="grey" stroke="grey" stroke-width="2" points="261.5,-102.21 258,-92.21 254.5,-102.21 261.5,-102.21"/>
</g>
<!-- 2 -->
<g id="node3" class="node">
<title>2</title>
<text text-anchor="start" x="7" y="-743.6" font-family="sans" font-weight="bold" font-size="18.00">download_treatmentResponse</text>
<text text-anchor="start" x="7" y="-719.8" font-family="sans" font-size="10.00"> </text>
<text text-anchor="start" x="11" y="-719.8" font-family="sans" font-weight="bold" font-size="14.00">↪ input</text>
<text text-anchor="start" x="69" y="-719.8" font-family="sans" font-size="10.00"> </text>
<text text-anchor="start" x="7" y="-700" font-family="monospace" font-size="10.00">&lt;input function&gt;</text>
<text text-anchor="start" x="233" y="-679.8" font-family="sans" font-size="10.00"> </text>
<text text-anchor="start" x="237" y="-679.8" font-family="sans" font-weight="bold" font-size="14.00">output →</text>
<text text-anchor="start" x="307" y="-679.8" font-family="sans" font-size="10.00"> </text>
<text text-anchor="start" x="7" y="-660" font-family="monospace" font-size="10.00">rawdata/treatmentResponse/CTRPv{release}.zip</text>
<polygon fill="#57d957" stroke="#57d957" points="1,-734 1,-734 318,-734 318,-734 1,-734"/>
<polygon fill="#57d957" stroke="#57d957" points="1,-694 1,-694 318,-694 318,-694 1,-694"/>
<polygon fill="none" stroke="#57d957" stroke-width="2" points="1,-651 1,-763 317,-763 317,-651 1,-651"/>
</g>
<!-- 2&#45;&gt;1 -->
<g id="edge4" class="edge">
<title>2&#45;&gt;1</title>
<path fill="none" stroke="grey" stroke-width="2" d="M102.28,-649.96C94.03,-638.86 86.74,-626.68 82,-614 38.16,-496.58 19.79,-442.47 79,-332 84.45,-321.82 91.2,-312.37 98.86,-303.61"/>
<polygon fill="grey" stroke="grey" stroke-width="2" points="101.59,-305.81 105.81,-296.09 96.45,-301.06 101.59,-305.81"/>
</g>
<!-- 4 -->
<g id="node5" class="node">
<title>4</title>
<text text-anchor="start" x="150.5" y="-593.6" font-family="sans" font-weight="bold" font-size="18.00">preprocess_Metadata</text>
<text text-anchor="start" x="99" y="-569.8" font-family="sans" font-size="10.00"> </text>
<text text-anchor="start" x="103" y="-569.8" font-family="sans" font-weight="bold" font-size="14.00">↪ input</text>
<text text-anchor="start" x="161" y="-569.8" font-family="sans" font-size="10.00"> </text>
<text text-anchor="start" x="99" y="-550" font-family="monospace" font-size="10.00">rawdata/treatmentResponse/CTRPv{release}.zip</text>
<text text-anchor="start" x="340" y="-529.8" font-family="sans" font-size="10.00"> </text>
<text text-anchor="start" x="344" y="-529.8" font-family="sans" font-weight="bold" font-size="14.00">output →</text>
<text text-anchor="start" x="414" y="-529.8" font-family="sans" font-size="10.00"> </text>
<text text-anchor="start" x="99" y="-510" font-family="monospace" font-size="10.00">rawdata/metadata/CTRPv{release}_sampleMetadata.tsv</text>
<text text-anchor="start" x="99" y="-492" font-family="monospace" font-size="10.00">rawdata/metadata/CTRPv{release}_treatmentMetadata.tsv</text>
<polygon fill="#add957" stroke="#add957" points="93,-584 93,-584 425,-584 425,-584 93,-584"/>
<polygon fill="#add957" stroke="#add957" points="93,-544 93,-544 425,-544 425,-544 93,-544"/>
<polygon fill="none" stroke="#add957" stroke-width="2" points="92.5,-483 92.5,-613 423.5,-613 423.5,-483 92.5,-483"/>
</g>
<!-- 2&#45;&gt;4 -->
<g id="edge6" class="edge">
<title>2&#45;&gt;4</title>
<path fill="none" stroke="grey" stroke-width="2" d="M194.46,-649.76C199.97,-641.03 205.73,-631.89 211.44,-622.84"/>
<polygon fill="grey" stroke="grey" stroke-width="2" points="214.51,-624.53 216.89,-614.2 208.59,-620.79 214.51,-624.53"/>
</g>
<!-- 3 -->
<g id="node4" class="node">
<title>3</title>
<text text-anchor="start" x="110.5" y="-425.6" font-family="sans" font-weight="bold" font-size="18.00">annotate_treatmentMetadata</text>
<text text-anchor="start" x="96" y="-401.8" font-family="sans" font-size="10.00"> </text>
<text text-anchor="start" x="100" y="-401.8" font-family="sans" font-weight="bold" font-size="14.00">↪ input</text>
<text text-anchor="start" x="158" y="-401.8" font-family="sans" font-size="10.00"> </text>
<text text-anchor="start" x="96" y="-382" font-family="monospace" font-size="10.00">rawdata/metadata/CTRPv{release}_treatmentMetadata.tsv</text>
<text text-anchor="start" x="343" y="-361.8" font-family="sans" font-size="10.00"> </text>
<text text-anchor="start" x="347" y="-361.8" font-family="sans" font-weight="bold" font-size="14.00">output →</text>
<text text-anchor="start" x="417" y="-361.8" font-family="sans" font-size="10.00"> </text>
<text text-anchor="start" x="96" y="-342" font-family="monospace" font-size="10.00">procdata/metadata/CTRPv{release}_treatmentMetadata.tsv</text>
<polygon fill="#57d9ad" stroke="#57d9ad" points="90,-416 90,-416 428,-416 428,-416 90,-416"/>
<polygon fill="#57d9ad" stroke="#57d9ad" points="90,-376 90,-376 428,-376 428,-376 90,-376"/>
<polygon fill="none" stroke="#57d9ad" stroke-width="2" points="89.5,-333 89.5,-445 426.5,-445 426.5,-333 89.5,-333"/>
</g>
<!-- 3&#45;&gt;1 -->
<g id="edge3" class="edge">
<title>3&#45;&gt;1</title>
<path fill="none" stroke="grey" stroke-width="2" d="M258,-331.67C258,-323.55 258,-315.02 258,-306.42"/>
<polygon fill="grey" stroke="grey" stroke-width="2" points="261.5,-306.31 258,-296.31 254.5,-306.31 261.5,-306.31"/>
</g>
<!-- 4&#45;&gt;3 -->
<g id="edge5" class="edge">
<title>4&#45;&gt;3</title>
<path fill="none" stroke="grey" stroke-width="2" d="M258,-481.78C258,-473.4 258,-464.8 258,-456.4"/>
<polygon fill="grey" stroke="grey" stroke-width="2" points="261.5,-456.27 258,-446.27 254.5,-456.27 261.5,-456.27"/>
</g>
<!-- 5 -->
<g id="node6" class="node">
<title>5</title>
<text text-anchor="start" x="473" y="-425.6" font-family="sans" font-weight="bold" font-size="18.00">annotate_sampleMetadata</text>
<text text-anchor="start" x="453" y="-401.8" font-family="sans" font-size="10.00"> </text>
<text text-anchor="start" x="457" y="-401.8" font-family="sans" font-weight="bold" font-size="14.00">↪ input</text>
<text text-anchor="start" x="515" y="-401.8" font-family="sans" font-size="10.00"> </text>
<text text-anchor="start" x="453" y="-382" font-family="monospace" font-size="10.00">rawdata/metadata/CTRPv{release}_sampleMetadata.tsv</text>
<text text-anchor="start" x="682" y="-361.8" font-family="sans" font-size="10.00"> </text>
<text text-anchor="start" x="686" y="-361.8" font-family="sans" font-weight="bold" font-size="14.00">output →</text>
<text text-anchor="start" x="756" y="-361.8" font-family="sans" font-size="10.00"> </text>
<text text-anchor="start" x="453" y="-342" font-family="monospace" font-size="10.00">procdata/metadata/CTRPv{release}_sampleMetadata.tsv</text>
<polygon fill="#d95757" stroke="#d95757" points="447,-416 447,-416 767,-416 767,-416 447,-416"/>
<polygon fill="#d95757" stroke="#d95757" points="447,-376 447,-376 767,-376 767,-376 447,-376"/>
<polygon fill="none" stroke="#d95757" stroke-width="2" points="446.5,-333 446.5,-445 765.5,-445 765.5,-333 446.5,-333"/>
</g>
<!-- 4&#45;&gt;5 -->
<g id="edge7" class="edge">
<title>4&#45;&gt;5</title>
<path fill="none" stroke="grey" stroke-width="2" d="M402.31,-481.9C425.47,-471.45 449.35,-460.67 472.24,-450.34"/>
<polygon fill="grey" stroke="grey" stroke-width="2" points="473.97,-453.4 481.65,-446.1 471.09,-447.02 473.97,-453.4"/>
</g>
<!-- 5&#45;&gt;1 -->
<g id="edge2" class="edge">
<title>5&#45;&gt;1</title>
<path fill="none" stroke="grey" stroke-width="2" d="M494.45,-331.91C474.54,-321.89 453.36,-311.24 432.18,-300.59"/>
<polygon fill="grey" stroke="grey" stroke-width="2" points="433.61,-297.39 423.11,-296.03 430.47,-303.65 433.61,-297.39"/>
</g>
</g>
</svg>
